<?xml version="1.0" encoding="UTF-8" standalone="no"?>
<!-- Created with Inkscape (http://www.inkscape.org/) -->

<svg
   xmlns:dc="http://purl.org/dc/elements/1.1/"
   xmlns:cc="http://creativecommons.org/ns#"
   xmlns:rdf="http://www.w3.org/1999/02/22-rdf-syntax-ns#"
   xmlns:svg="http://www.w3.org/2000/svg"
   xmlns="http://www.w3.org/2000/svg"
   xmlns:sodipodi="http://sodipodi.sourceforge.net/DTD/sodipodi-0.dtd"
   xmlns:inkscape="http://www.inkscape.org/namespaces/inkscape"
   width="210mm"
   height="297mm"
   viewBox="0 0 744.09448819 1052.3622047"
   id="svg2"
   version="1.1"
   inkscape:version="0.91 r13725"
   sodipodi:docname="gamfic.svg">
  <defs
     id="defs4" />
  <sodipodi:namedview
     id="base"
     pagecolor="#ffffff"
     bordercolor="#666666"
     borderopacity="1.0"
     inkscape:pageopacity="0.0"
     inkscape:pageshadow="2"
     inkscape:zoom="0.7"
     inkscape:cx="442.51426"
     inkscape:cy="729.17641"
     inkscape:document-units="px"
     inkscape:current-layer="layer1"
     showgrid="false"
     inkscape:object-paths="true"
     inkscape:window-width="1366"
     inkscape:window-height="705"
     inkscape:window-x="-8"
     inkscape:window-y="-8"
     inkscape:window-maximized="1" />
  <metadata
     id="metadata7">
    <rdf:RDF>
      <cc:Work
         rdf:about="">
        <dc:format>image/svg+xml</dc:format>
        <dc:type
           rdf:resource="http://purl.org/dc/dcmitype/StillImage" />
        <dc:title />
      </cc:Work>
    </rdf:RDF>
  </metadata>
  <g
     inkscape:label="Layer 1"
     inkscape:groupmode="layer"
     id="layer1">
    <ellipse
       style="opacity:1;fill:#008080;fill-opacity:1;stroke:none;stroke-width:5;stroke-miterlimit:4;stroke-dasharray:none;stroke-dashoffset:0;stroke-opacity:1"
       id="path4142"
       cx="423.92859"
       cy="574.86218"
       r="67.5" />
    <text
       xml:space="preserve"
       style="font-style:normal;font-variant:normal;font-weight:normal;font-stretch:normal;font-size:43.63022614px;line-height:125%;font-family:Comfortaa;-inkscape-font-specification:Comfortaa;letter-spacing:0px;word-spacing:0px;fill:#ffaaaa;fill-opacity:0.97254902;stroke:none;stroke-width:1px;stroke-linecap:butt;stroke-linejoin:miter;stroke-opacity:1;"
       x="173.56859"
       y="651.87115"
       id="text4227"
       sodipodi:linespacing="125%"
       inkscape:export-xdpi="210.15807"
       inkscape:export-ydpi="210.15807"><tspan
         sodipodi:role="line"
         id="tspan4229"
         x="173.56859"
         y="651.87115">keep our spirit high</tspan></text>
    <path
       inkscape:export-ydpi="43.113708"
       inkscape:export-xdpi="43.113708"
       id="text4448"
       d="m 454.52596,412.41408 c -8.42441,0.10527 -16.80806,3.29099 -23.17861,9.52782 l -8.70058,8.51648 a 97.095692,92.596326 0 0 0 -38.23107,-7.12589 97.095692,92.596326 0 0 0 -96.17645,93.17794 97.095692,92.596326 0 0 0 97.39847,92.01137 97.095692,92.596326 0 0 0 96.79084,-92.59466 l -0.006,-1.1688 a 97.095692,92.596326 0 0 0 -11.1158,-41.83947 l 7.26343,-7.11261 c 0.51467,-0.50388 1.00042,-1.0234 1.47263,-1.55025 3.41724,3.14685 6.14686,6.65512 8.18159,10.53026 2.77713,5.00637 4.46319,10.73661 5.05668,17.19046 0.31195,2.9654 1.33792,5.10597 3.07834,6.41842 1.1603,0.87497 2.52491,1.35696 4.09413,1.44825 3.02247,0.095 5.23362,-0.78498 6.63355,-2.64144 1.04996,-1.39236 1.50474,-2.96201 1.36398,-4.70625 -0.62727,-17.31881 -7.7143,-31.36012 -21.21803,-42.14777 2.24674,-10.17171 -0.85694,-21.16922 -9.275,-28.98934 -6.53987,-6.07534 -15.00705,-9.0499 -23.43144,-8.94452 z m -70.84435,24.39397 c 45.77209,-0.4122 83.26771,34.56692 83.84529,78.21643 l 0.009,1.00026 c -9.2e-4,43.65236 -37.03188,79.07652 -82.80513,79.21445 -45.77393,0.13733 -83.03916,-35.06554 -83.32856,-78.71767 -0.28793,-43.65182 36.50775,-79.29985 82.27952,-79.71347 z m 0.1064,9.65869 c -39.60644,0.36285 -71.4468,31.66609 -71.19698,69.99713 0.24962,38.33106 31.4312,-4.78075 71.03951,-4.90143 39.60835,-0.12131 72.71441,42.79416 72.71396,4.4623 l -0.005,-0.87827 c -0.50016,-38.3271 -32.94495,-69.04057 -72.54966,-68.67973 l -9.2e-4,0 z m 36.61204,37.90503 a 10.101165,9.6330815 0 0 1 10.19539,9.5123 l 9.2e-4,0.11973 a 10.101165,9.6330815 0 0 1 -10.06899,9.6343 10.101165,9.6330815 0 0 1 -10.13331,-9.57219 10.101165,9.6330815 0 0 1 10.00468,-9.69418 z m -74.42838,1.01357 a 10.101165,9.6330815 0 0 1 10.1954,9.51229 l 0,0.12194 a 10.101165,9.6330815 0 0 1 -10.06899,9.63206 10.101165,9.6330815 0 0 1 -10.13329,-9.57219 10.101165,9.6330815 0 0 1 10.00688,-9.69417 z"
       style="font-style:normal;font-variant:normal;font-weight:normal;font-stretch:normal;font-size:138.90647888px;line-height:125%;font-family:Comfortaa;-inkscape-font-specification:Comfortaa;letter-spacing:0px;word-spacing:0px;opacity:0.97000002;fill:#ffaaaa;fill-opacity:1;stroke:none;stroke-width:1px;stroke-linecap:butt;stroke-linejoin:miter;stroke-opacity:1"
       inkscape:connector-curvature="0" />
    <text
       sodipodi:linespacing="125%"
       id="text4139"
       y="577.03418"
       x="-45.253941"
       style="font-style:normal;font-variant:normal;font-weight:normal;font-stretch:normal;font-size:191.96525574px;line-height:125%;font-family:Comfortaa;-inkscape-font-specification:Comfortaa;letter-spacing:0px;word-spacing:0px;fill:#ffaaaa;fill-opacity:0.97254902;stroke:none;stroke-width:1px;stroke-linecap:butt;stroke-linejoin:miter;stroke-opacity:1"
       xml:space="preserve"><tspan
         y="577.03418"
         x="-45.253941"
         id="tspan4141"
         sodipodi:role="line">Glo    bal</tspan></text>
    <rect
       style="opacity:0.98000004;fill:none;fill-opacity:1;stroke:none;stroke-width:5;stroke-miterlimit:4;stroke-dasharray:none;stroke-dashoffset:0;stroke-opacity:1"
       id="rect4160"
       width="241.42857"
       height="241.42857"
       x="280"
       y="26.647919"
       inkscape:export-xdpi="37.278114"
       inkscape:export-ydpi="37.278114" />
    <text
       sodipodi:linespacing="125%"
       id="text4145"
       y="93.71376"
       x="-548.66046"
       style="font-style:normal;font-variant:normal;font-weight:normal;font-stretch:normal;font-size:191.96525574px;line-height:125%;font-family:Comfortaa;-inkscape-font-specification:Comfortaa;letter-spacing:0px;word-spacing:0px;fill:#2d2e53;fill-opacity:0.98039216;stroke:none;stroke-width:1px;stroke-linecap:butt;stroke-linejoin:miter;stroke-opacity:1"
       xml:space="preserve"
       transform="matrix(-0.99998887,0.0047175,-0.0047175,-0.99998887,0,0)"><tspan
         y="93.71376"
         x="-548.66046"
         id="tspan4147"
         sodipodi:role="line" /></text>
    <path
       style="opacity:0.98000004;fill:#2d2e52;fill-opacity:0.96078431;stroke:none;stroke-width:5;stroke-miterlimit:4;stroke-dasharray:none;stroke-dashoffset:0;stroke-opacity:1"
       id="path4167"
       sodipodi:type="arc"
       sodipodi:cx="406.57141"
       sodipodi:cy="170.64792"
       sodipodi:rx="91.714287"
       sodipodi:ry="88.85714"
       sodipodi:start="0"
       sodipodi:end="6.270584"
       sodipodi:open="true"
       d="m 498.2857,170.64792 a 91.714287,88.85714 0 0 1 -91.42536,88.8567 91.714287,88.85714 0 0 1 -92.0014,-88.29685 91.714287,88.85714 0 0 1 90.84569,-89.413023 91.714287,88.85714 0 0 1 92.57379,87.733483" />
    <rect
       style="opacity:0.98000004;fill:none;fill-opacity:0.96078431;stroke:none;stroke-width:5;stroke-miterlimit:4;stroke-dasharray:none;stroke-dashoffset:0;stroke-opacity:1"
       id="rect4169"
       width="237.14287"
       height="237.14287"
       x="299.42856"
       y="49.219345"
       inkscape:export-xdpi="43"
       inkscape:export-ydpi="43" />
    <path
       inkscape:connector-curvature="0"
       style="font-style:normal;font-variant:normal;font-weight:normal;font-stretch:normal;font-size:138.90647888px;line-height:125%;font-family:Comfortaa;-inkscape-font-specification:Comfortaa;letter-spacing:0px;word-spacing:0px;opacity:0.97000002;fill:#ffffff;fill-opacity:1;stroke:none;stroke-width:1px;stroke-linecap:butt;stroke-linejoin:miter;stroke-opacity:1"
       d="m 475.95453,68.12837 c -8.42441,0.10527 -16.80806,3.29099 -23.17861,9.52782 l -8.70058,8.51648 a 97.095692,92.596326 0 0 0 -38.23107,-7.12589 97.095692,92.596326 0 0 0 -96.17645,93.17794 97.095692,92.596326 0 0 0 97.39847,92.01137 97.095692,92.596326 0 0 0 96.79084,-92.59466 l -0.006,-1.1688 a 97.095692,92.596326 0 0 0 -11.1158,-41.83947 l 7.26343,-7.11261 c 0.51467,-0.50388 1.00042,-1.0234 1.47263,-1.55025 3.41724,3.14685 6.14686,6.65512 8.18159,10.53026 2.77713,5.00637 4.46319,10.73661 5.05668,17.19046 0.31195,2.9654 1.33792,5.10597 3.07834,6.41842 1.1603,0.87497 2.52491,1.35696 4.09413,1.44825 3.02247,0.095 5.23362,-0.78498 6.63355,-2.64144 1.04996,-1.39236 1.50474,-2.96201 1.36398,-4.70625 -0.62727,-17.31881 -7.7143,-31.36012 -21.21803,-42.14777 2.24674,-10.17171 -0.85694,-21.16922 -9.275,-28.98934 -6.53987,-6.07534 -15.00705,-9.0499 -23.43144,-8.94452 z m -70.84435,24.39397 c 45.77209,-0.4122 83.26771,34.56692 83.84529,78.21643 l 0.009,1.00026 c -9.2e-4,43.65236 -37.03188,79.07652 -82.80513,79.21445 -45.77393,0.13733 -83.03916,-35.06554 -83.32856,-78.71767 -0.28793,-43.65182 36.50775,-79.29985 82.27952,-79.71347 z m 0.1064,9.65869 c -39.60644,0.36285 -71.4468,31.66609 -71.19698,69.99713 0.24962,38.33106 31.4312,-4.78075 71.03951,-4.90143 39.60835,-0.12131 72.71441,42.79416 72.71396,4.4623 l -0.005,-0.87827 c -0.50016,-38.3271 -32.94495,-69.04057 -72.54966,-68.67973 l -9.2e-4,0 z m 36.61204,37.90503 a 10.101165,9.6330815 0 0 1 10.19539,9.5123 l 9.2e-4,0.11973 a 10.101165,9.6330815 0 0 1 -10.06899,9.6343 10.101165,9.6330815 0 0 1 -10.13331,-9.57219 10.101165,9.6330815 0 0 1 10.00468,-9.69418 z m -74.42838,1.01357 a 10.101165,9.6330815 0 0 1 10.1954,9.51229 l 0,0.12194 a 10.101165,9.6330815 0 0 1 -10.06899,9.63206 10.101165,9.6330815 0 0 1 -10.13329,-9.57219 10.101165,9.6330815 0 0 1 10.00688,-9.69417 z"
       id="path4153"
       inkscape:export-xdpi="43.113708"
       inkscape:export-ydpi="43.113708" />
  </g>
</svg>
